<svg width="40" height="35" viewBox="0 0 40 35" fill="none" xmlns="http://www.w3.org/2000/svg">
<path d="M30.5269 19.9176L29.2347 21.7114L27.6345 14.3408L26.4104 17.5095C26.5985 18.005 26.9222 18.9393 27.1731 20.0655L27.4091 19.4601L28.43 24.16L31.0695 21.1247H39.3169V19.9176H30.5269Z" fill="#02446B"/>
<path d="M14.1405 6.87535C14.6241 6.65747 15.1293 6.48123 15.6503 6.34725L15.1595 0.466849C15.1333 0.151191 14.7637 -0.0721224 14.4393 0.0256529L13.7736 0.230257C13.3738 0.352778 13.1058 0.695595 13.1058 1.08307C13.1058 1.13257 13.1104 1.18206 13.1189 1.23155L14.1405 6.87535Z" fill="#02446B"/>
<path d="M15.3384 12.0711C16.7079 12.0711 18.0519 11.6371 19.122 10.8489C20.1501 10.0914 21.3801 9.58566 22.6782 9.38649L23.3656 9.28087C21.9921 8.01281 20.0964 7.24268 18.027 7.24268C15.569 7.24268 13.2605 8.34959 11.8516 10.2049C11.6983 10.4071 11.5548 10.6141 11.4185 10.8235C12.4944 11.6293 13.8292 12.0711 15.2309 12.0711H15.3384Z" fill="#02446B"/>
<path d="M0.423969 7.66872L3.12177 8.91083C4.05228 9.33935 4.73574 10.0914 5.04897 10.984C5.49325 10.9092 5.94736 10.8639 6.41392 10.8639H6.49976C7.01285 10.8639 7.52791 10.911 8.02985 11.0033L9.65889 11.3033C9.9636 10.6943 10.3299 10.1083 10.7512 9.54939L9.39547 8.30064C8.84306 7.79185 8.50559 7.11647 8.4453 6.39825L7.95319 0.50457C7.92566 0.176842 7.55739 -0.0651819 7.21861 0.0156939L5.84317 0.331955C5.48932 0.414641 5.24227 0.706156 5.24227 1.04294C5.24227 1.10329 5.25014 1.16244 5.26586 1.21978L6.33267 5.1495C6.52532 5.86169 6.16295 6.58776 5.45 6.91609C4.87532 7.18105 4.19841 7.12492 3.68335 6.76883L1.97503 5.58889C1.59889 5.33057 1.01307 5.4217 0.752266 5.78202L0.128436 6.64329C0.0445594 6.76038 0 6.89557 0 7.0362C0 7.30538 0.162511 7.54801 0.423969 7.66872Z" fill="#02446B"/>
<path d="M4.80722 19.917C6.8884 19.917 8.51809 18.39 8.51809 16.4399V16.1128C8.51809 14.852 8.73827 13.6165 9.16683 12.4438L7.77238 12.1867C7.35431 12.11 6.92575 12.0708 6.49916 12.0708H6.41332C2.9639 12.0708 0.141593 14.6468 0.00463867 17.8613L0.419434 18.2433C1.59174 19.3225 3.15 19.917 4.80722 19.917Z" fill="#02446B"/>
<path d="M19.3688 6.13571L20.9067 1.88611C20.9487 1.77143 20.9696 1.65072 20.9696 1.53001C20.9696 1.15219 20.7658 0.801524 20.4244 0.592092L19.5824 0.0748484C19.3052 -0.095353 18.8904 0.0694164 18.836 0.373003L17.8092 6.04819C17.8826 6.04638 17.954 6.03552 18.0274 6.03552C18.4835 6.03552 18.9297 6.07415 19.3688 6.13571Z" fill="#02446B"/>
<path d="M25.3985 4.78419C25.5007 4.67132 25.5564 4.52888 25.5564 4.38222C25.5564 4.14261 25.4123 3.92775 25.1796 3.82032L24.9582 3.71832C24.5093 3.5113 23.9254 3.66219 23.6594 4.0551L21.7925 6.80608C22.2125 6.98775 22.6129 7.20262 22.9943 7.44102L25.3985 4.78419Z" fill="#02446B"/>
<path d="M15.0717 22.3313C16.1574 22.3313 17.0375 21.5206 17.0375 20.5206C17.0375 19.5206 16.1574 18.71 15.0717 18.71C13.986 18.71 13.1058 19.5206 13.1058 20.5206C13.1058 21.5206 13.986 22.3313 15.0717 22.3313Z" fill="#02446B"/>
<path d="M21.6421 17.795L20.8388 21.1242H18.2812C17.9765 22.4997 16.6535 23.5384 15.0709 23.5384C13.2643 23.5384 11.7945 22.1846 11.7945 20.5206C11.7945 18.8567 13.2643 17.5029 15.0709 17.5029C16.6528 17.5029 17.9765 18.5416 18.2812 19.9171H19.7877L21.6054 12.3824L24.3065 22.9548L26.41 17.5089C26.3202 17.2717 26.2599 17.1299 26.2573 17.1239L26.2206 17.005L25.4493 12.9799C25.2645 12.0166 24.8661 11.1336 24.3118 10.3599L22.8931 10.5777C21.8151 10.7431 20.7942 11.1632 19.9404 11.7921C18.6383 12.7499 17.004 13.278 15.3376 13.278H15.2295C13.6162 13.278 12.0776 12.7946 10.807 11.9128C10.1681 13.2267 9.82867 14.6493 9.82867 16.1129V16.44C9.82867 19.0232 7.5758 21.1242 4.80723 21.1242C3.06745 21.1242 1.4181 20.5834 0.0845947 19.5882C0.4201 22.3838 1.73526 25.0231 3.87345 27.144C6.72262 29.9704 10.2834 32.2235 14.1712 33.6606L17.4536 34.8719C18.0243 35.0819 18.7169 35.0439 19.1979 34.683L19.5229 34.4385C23.4389 31.4866 26.277 27.3776 27.5213 22.8612C27.5141 21.8943 27.3654 20.9256 27.1734 20.0644L24.184 27.7439L21.6421 17.795Z" fill="#02446B"/>
</svg>
