<svg width="52" height="59" viewBox="0 0 52 59" fill="none" xmlns="http://www.w3.org/2000/svg">
<path d="M15.6333 26.8C12.6717 26.8 9.83146 25.6235 7.73731 23.5294C5.64315 21.4352 4.46667 18.5949 4.46667 15.6333V6.7C4.46667 6.10768 4.70196 5.53963 5.1208 5.1208C5.53963 4.70196 6.10768 4.46667 6.7 4.46667H8.93333C9.52565 4.46667 10.0937 4.23137 10.5125 3.81254C10.9314 3.39371 11.1667 2.82565 11.1667 2.23333C11.1667 1.64102 10.9314 1.07296 10.5125 0.654128C10.0937 0.235297 9.52565 0 8.93333 0H6.7C4.92305 0 3.21888 0.705891 1.96238 1.96238C0.705891 3.21888 0 4.92305 0 6.7V15.6333C0.00287077 18.1564 0.618124 20.6411 1.79292 22.874C2.96771 25.1069 4.66694 27.0212 6.74467 28.4527C8.74088 30.2126 10.3598 32.3588 11.5036 34.7616C12.6475 37.1645 13.2926 39.7743 13.4 42.4333C13.4 46.5796 15.0471 50.556 17.9789 53.4878C20.9107 56.4196 24.8871 58.0667 29.0333 58.0667C33.1796 58.0667 37.1559 56.4196 40.0878 53.4878C43.0196 50.556 44.6667 46.5796 44.6667 42.4333V39.8873C46.7719 39.3438 48.6067 38.051 49.827 36.2514C51.0473 34.4519 51.5694 32.269 51.2955 30.112C51.0215 27.955 49.9702 25.972 48.3388 24.5347C46.7073 23.0973 44.6076 22.3043 42.4333 22.3043C40.259 22.3043 38.1593 23.0973 36.5279 24.5347C34.8964 25.972 33.8452 27.955 33.5712 30.112C33.2972 32.269 33.8193 34.4519 35.0397 36.2514C36.26 38.051 38.0947 39.3438 40.2 39.8873V42.4333C40.2 45.3949 39.0235 48.2352 36.9294 50.3294C34.8352 52.4235 31.9949 53.6 29.0333 53.6C26.0717 53.6 23.2315 52.4235 21.1373 50.3294C19.0432 48.2352 17.8667 45.3949 17.8667 42.4333C17.9797 39.771 18.6318 37.1592 19.7834 34.7561C20.9351 32.3531 22.5623 30.2087 24.5667 28.4527C26.6361 27.0163 28.3267 25.0997 29.4935 22.8671C30.6604 20.6346 31.2688 18.1525 31.2667 15.6333V6.7C31.2667 4.92305 30.5608 3.21888 29.3043 1.96238C28.0478 0.705891 26.3436 0 24.5667 0H22.3333C21.741 0 21.173 0.235297 20.7541 0.654128C20.3353 1.07296 20.1 1.64102 20.1 2.23333C20.1 2.82565 20.3353 3.39371 20.7541 3.81254C21.173 4.23137 21.741 4.46667 22.3333 4.46667H24.5667C25.159 4.46667 25.727 4.70196 26.1459 5.1208C26.5647 5.53963 26.8 6.10768 26.8 6.7V15.6333C26.8 17.0998 26.5112 18.5518 25.95 19.9066C25.3888 21.2614 24.5663 22.4924 23.5294 23.5294C22.4924 24.5663 21.2614 25.3888 19.9066 25.95C18.5518 26.5112 17.0998 26.8 15.6333 26.8ZM42.4333 35.7333C41.2487 35.7333 40.1126 35.2627 39.2749 34.4251C38.4373 33.5874 37.9667 32.4513 37.9667 31.2667C37.9667 30.082 38.4373 28.9459 39.2749 28.1083C40.1126 27.2706 41.2487 26.8 42.4333 26.8C43.618 26.8 44.7541 27.2706 45.5917 28.1083C46.4294 28.9459 46.9 30.082 46.9 31.2667C46.9 32.4513 46.4294 33.5874 45.5917 34.4251C44.7541 35.2627 43.618 35.7333 42.4333 35.7333Z" fill="#02446B"/>
</svg>
